<?xml version="1.0" encoding="UTF-8" standalone="no"?>
<!-- Created with Inkscape (http://www.inkscape.org/) -->

<svg
   version="1.1"
   id="svg1"
   width="235.77867"
   height="51.513332"
   viewBox="0 0 235.77867 51.513332"
   xmlns="http://www.w3.org/2000/svg"
   xmlns:svg="http://www.w3.org/2000/svg">
  <defs
     id="defs1" />
  <g
     id="g1">
    <path
       id="path1"
       d="M 30.97739,0 C 30.97739,5.44704 17.10854,9.86264 0,9.86264 -17.10854,9.86264 -30.97739,5.44704 -30.97739,0 c 0,-5.44704 13.86885,-9.86264 30.97739,-9.86264 17.10854,0 30.97739,4.4156 30.97739,9.86264 z"
       style="fill:#ffffff;fill-opacity:1;fill-rule:nonzero;stroke:#000000;stroke-width:1.49442;stroke-linecap:butt;stroke-linejoin:miter;stroke-miterlimit:10;stroke-dasharray:none;stroke-opacity:1"
       transform="matrix(1.3333333,0,0,-1.3333333,42.298667,25.756)" />
    <g
       id="g2"
       aria-label="Model(θ)"
       transform="matrix(1.3333333,0,0,1.3333333,15.750667,29.077333)">
      <path
         id="path2"
         d="M 2.4018438,-6.5853437 C 2.3080938,-6.808 2.2846563,-6.808 2.0502813,-6.808 H 0.36278125 v 0.3164063 H 0.608875 c 0.7617188,0 0.7851563,0.1054687 0.7851563,0.46875 v 4.9804687 c 0,0.26953125 0,0.73828125 -1.03125005,0.73828125 V 5.9375e-4 C 0.71434375,-0.011125 1.2065313,-0.0345625 1.5346563,-0.0345625 c 0.328125,0 0.8203125,0.0234375 1.1601562,0.03515625 v -0.3046875 c -1.0195312,0 -1.0195312,-0.46875 -1.0195312,-0.73828125 V -6.4095625 H 1.687 l 2.4023438,6.1875 c 0.046875,0.12890625 0.09375,0.22265625 0.1992187,0.22265625 0.1054688,0 0.1289063,-0.08203125 0.1757813,-0.1875 L 6.9135625,-6.4915937 h 0.011719 v 5.71874995 c 0,0.3515625 -0.023437,0.46875 -0.7851563,0.46875 H 5.8940313 V 5.9375e-4 C 6.2690313,-0.0345625 6.937,-0.0345625 7.3354375,-0.0345625 c 0.3867188,0 1.0546875,0 1.4179688,0.03515625 v -0.3046875 h -0.234375 c -0.7734375,0 -0.7851563,-0.1171875 -0.7851563,-0.46875 V -6.0228437 c 0,-0.3632813 0.011719,-0.46875 0.7851563,-0.46875 h 0.234375 V -6.808 H 7.077625 c -0.2695312,0 -0.2695312,0.011719 -0.3398437,0.1992188 l -2.1796875,5.6015625 z m 11.4169922,4.453125 c 0,-1.2773438 -0.996094,-2.3320313 -2.191406,-2.3320313 -1.253907,0 -2.2148441,1.0898438 -2.2148441,2.3320313 0,1.28906245 1.0312501,2.2382812 2.2031251,2.2382812 1.207031,0 2.203125,-0.97265625 2.203125,-2.2382812 z m -2.191406,1.99218745 c -0.433594,0 -0.867188,-0.2109375 -1.136719,-0.66796875 -0.257813,-0.4335937 -0.257813,-1.0429687 -0.257813,-1.40625 0,-0.3867187 0,-0.9257812 0.246094,-1.359375 0.269531,-0.4570312 0.738281,-0.6679687 1.136719,-0.6679687 0.433594,0 0.867187,0.2226562 1.125,0.6445312 0.257812,0.4335938 0.257812,1.0078125 0.257812,1.3828125 0,0.3632813 0,0.9023438 -0.222656,1.3359375 -0.222656,0.4453125 -0.65625,0.73828125 -1.148437,0.73828125 z m 6.550781,-0.41015625 v 0.65625 L 19.643055,5.9375e-4 v -0.3046875 c -0.703125,0 -0.773438,-0.0703125 -0.773438,-0.5625 V -6.9134687 L 17.428211,-6.808 v 0.3164063 c 0.703125,0 0.785156,0.070312 0.785156,0.5507812 v 2.15625 c -0.292969,-0.3632812 -0.726562,-0.6210937 -1.265625,-0.6210937 -1.171875,0 -2.214844,0.984375 -2.214844,2.2617187 0,1.265625 0.972657,2.25 2.109375,2.25 0.644532,0 1.089844,-0.33984375 1.335938,-0.65625 z m 0,-2.671875 v 2.0507813 c 0,0.1757812 0,0.1992187 -0.105469,0.3632812 -0.304687,0.48046875 -0.75,0.703125 -1.183594,0.703125 -0.445312,0 -0.796875,-0.2578125 -1.042968,-0.64453125 -0.257813,-0.41015625 -0.292969,-0.97265625 -0.292969,-1.38281245 0,-0.3632813 0.02344,-0.9609375 0.316406,-1.4179688 0.210938,-0.3046875 0.585938,-0.6328125 1.125,-0.6328125 0.351563,0 0.761719,0.1523438 1.078125,0.5976563 0.105469,0.1640625 0.105469,0.1875 0.105469,0.3632812 z m 2.862305,0.7148438 c 0.05859,-1.4882813 0.902343,-1.734375 1.242187,-1.734375 1.019531,0 1.125,1.3476562 1.125,1.734375 z m -0.01172,0.2109375 h 2.789062 c 0.210938,0 0.246094,0 0.246094,-0.2109375 0,-0.984375 -0.539062,-1.9570313 -1.78125,-1.9570313 -1.160156,0 -2.074219,1.03125 -2.074219,2.2734375 0,1.3359375 1.042969,2.296875 2.191407,2.296875 1.21875,0 1.664062,-1.1015625 1.664062,-1.2890625 0,-0.1054687 -0.08203,-0.1171875 -0.128906,-0.1171875 -0.09375,0 -0.117188,0.058594 -0.128906,0.140625 -0.351563,1.01953125 -1.253907,1.01953125 -1.347657,1.01953125 -0.503906,0 -0.902343,-0.29296875 -1.125,-0.66796875 -0.304687,-0.4804687 -0.304687,-1.1367187 -0.304687,-1.4882812 z M 26.114734,-6.9134687 24.685047,-6.808 v 0.3164063 c 0.703125,0 0.773437,0.070312 0.773437,0.5507812 v 5.1796875 c 0,0.45703125 -0.105468,0.45703125 -0.773437,0.45703125 v 0.3046875 c 0.328125,-0.01171875 0.855469,-0.03515625 1.101562,-0.03515625 0.257813,0 0.738282,0.0234375 1.113282,0.03515625 v -0.3046875 c -0.667969,0 -0.785157,0 -0.785157,-0.45703125 z m 4.300782,9.3046875 c 0,-0.035156 0,-0.046875 -0.164063,-0.2226563 -1.242187,-1.25390625 -1.570312,-3.12890625 -1.570312,-4.6640625 0,-1.7226562 0.386718,-3.4570312 1.605468,-4.7109375 0.128907,-0.1171875 0.128907,-0.1289062 0.128907,-0.1640625 0,-0.070312 -0.03516,-0.1054687 -0.09375,-0.1054687 -0.105469,0 -0.996094,0.6796875 -1.582032,1.9453125 -0.515625,1.1015625 -0.632812,2.203125 -0.632812,3.0351562 0,0.7851563 0.117187,1.9921875 0.65625,3.1171875 0.597656,1.21875 1.453125,1.875 1.558594,1.875 0.05859,0 0.09375,-0.035156 0.09375,-0.1054687 z m 0,0"
         style="fill:#000000;fill-opacity:1;fill-rule:nonzero;stroke:none" />
      <path
         id="path3"
         d="m 35.53075,-4.979875 c 0,-0.65625 -0.1875,-2.0390625 -1.195312,-2.0390625 -1.382813,0 -2.917969,2.8007813 -2.917969,5.0859375 0,0.9375 0.28125,2.0390625 1.195312,2.0390625 1.40625,0 2.917969,-2.859375 2.917969,-5.0859375 z M 32.472156,-3.6205 c 0.164063,-0.6328125 0.363282,-1.4296875 0.761719,-2.1328125 C 33.503406,-6.2455 33.878406,-6.808 34.323719,-6.808 c 0.492187,0 0.550781,0.6445313 0.550781,1.2070313 0,0.4921875 -0.08203,0.9960937 -0.328125,1.9804687 z m 1.992188,0.328125 c -0.117188,0.4570312 -0.316406,1.3007813 -0.703125,2.015625 -0.339844,0.6796875 -0.726563,1.171875 -1.148438,1.171875 -0.328125,0 -0.539062,-0.29296875 -0.539062,-1.21875 0,-0.421875 0.05859,-0.9960937 0.316406,-1.96875 z m 0,0"
         style="fill:#000000;fill-opacity:1;fill-rule:nonzero;stroke:none" />
      <path
         id="path4"
         d="m 38.829578,-2.4955 c 0,-0.7734375 -0.117187,-1.9804687 -0.65625,-3.1054687 -0.597656,-1.21875 -1.464844,-1.875 -1.558594,-1.875 -0.05859,0 -0.105468,0.046875 -0.105468,0.1054687 0,0.035156 0,0.046875 0.199218,0.234375 0.972657,0.984375 1.535157,2.5664063 1.535157,4.640625 0,1.7109375 -0.363282,3.45703125 -1.59375,4.7226563 -0.140625,0.1171875 -0.140625,0.1289062 -0.140625,0.1640625 0,0.058594 0.04687,0.1054687 0.105468,0.1054687 0.09375,0 0.996094,-0.6796875 1.582032,-1.9453125 0.503906,-1.1015625 0.632812,-2.203125 0.632812,-3.046875 z m 0,0"
         style="fill:#000000;fill-opacity:1;fill-rule:nonzero;stroke:none" />
    </g>
    <path
       id="path5"
       d="m 144.36452,0 c 0,10.25644 -22.20942,18.5707 -49.60688,18.5707 -27.39746,0 -49.60685,-8.31426 -49.60685,-18.5707 0,-10.25644 22.20939,-18.5707 49.60685,-18.5707 27.39746,0 49.60688,8.31426 49.60688,18.5707 z"
       style="fill:#ffffff;fill-opacity:1;fill-rule:nonzero;stroke:#000000;stroke-width:1.49442;stroke-linecap:butt;stroke-linejoin:miter;stroke-miterlimit:10;stroke-dasharray:none;stroke-opacity:1"
       transform="matrix(1.3333333,0,0,-1.3333333,42.298667,25.756)" />
    <g
       id="g5"
       aria-label="Implications(θ)&#10;forF&#10;X,Y"
       transform="matrix(1.3333333,0,0,1.3333333,124.528,20.868)">
      <path
         id="path6"
         d="m 2.2377891,-6.0240469 c 0,-0.3632812 0.035156,-0.46875 0.8203125,-0.46875 h 0.2578125 v -0.3164062 c -0.3515625,0.035156 -1.1367188,0.035156 -1.5117188,0.035156 -0.3867187,0 -1.17187499,0 -1.52343749,-0.035156 v 0.3164062 h 0.2578125 c 0.78515629,0 0.82031249,0.1054688 0.82031249,0.46875 v 5.25000002 c 0,0.3515625 -0.035156,0.46875 -0.82031249,0.46875 H 0.28075781 V -6.09375e-4 C 0.63232031,-0.03576563 1.4174766,-0.03576563 1.7924766,-0.03576563 c 0.3867187,0 1.171875,0 1.5234375,0.035156255 V -0.30529688 H 3.0581016 c -0.7851563,0 -0.8203125,-0.1171875 -0.8203125,-0.46875 z m 2.4609375,2.6015625 v 2.66015627 c 0,0.45703125 -0.1171875,0.45703125 -0.7851563,0.45703125 v 0.304687505 c 0.3515625,-0.011718755 0.8554688,-0.035156255 1.125,-0.035156255 0.2578125,0 0.7851563,0.0234375 1.1132813,0.035156255 V -0.30529688 c -0.65625,0 -0.7734375,0 -0.7734375,-0.45703125 V -2.5904531 c 0,-1.03125 0.7148437,-1.59375 1.3476562,-1.59375 0.6210938,0 0.7382813,0.5390625 0.7382813,1.1015625 v 2.32031247 c 0,0.45703125 -0.1171875,0.45703125 -0.7734375,0.45703125 v 0.304687505 c 0.3398437,-0.011718755 0.8554687,-0.035156255 1.125,-0.035156255 0.2578125,0 0.7734375,0.0234375 1.1132812,0.035156255 V -0.30529688 c -0.6679687,0 -0.7851562,0 -0.7851562,-0.45703125 V -2.5904531 c 0,-1.03125 0.7148437,-1.59375 1.3476562,-1.59375 0.6328127,0 0.7382817,0.5390625 0.7382817,1.1015625 v 2.32031247 c 0,0.45703125 -0.105469,0.45703125 -0.7734379,0.45703125 V -6.09375e-4 C 9.8081016,-0.01232813 10.312008,-0.03576563 10.581539,-0.03576563 c 0.257813,0 0.773438,0.0234375 1.113281,0.035156255 V -0.30529688 c -0.515625,0 -0.761718,0 -0.773437,-0.3046875 V -2.5084219 c 0,-0.8554687 0,-1.171875 -0.316406,-1.5234375 -0.128907,-0.1757812 -0.46875,-0.375 -1.0429692,-0.375 -0.8320312,0 -1.2773437,0.5976563 -1.4414062,0.984375 -0.140625,-0.8671875 -0.8789063,-0.984375 -1.3242188,-0.984375 -0.7265625,0 -1.1953125,0.4335938 -1.4765625,1.0546875 v -1.0546875 l -1.40625,0.1171875 v 0.3046875 c 0.703125,0 0.7851563,0.070312 0.7851563,0.5625 z m 8.9121094,-0.328125 v -0.65625 l -1.429688,0.1171875 v 0.3046875 c 0.703125,0 0.773438,0.058594 0.773438,0.4921875 v 4.6640625 c 0,0.4570313 -0.105469,0.4570313 -0.773438,0.4570313 v 0.3046875 c 0.339844,-0.011719 0.855469,-0.035156 1.113282,-0.035156 0.269531,0 0.773437,0.023437 1.125,0.035156 V 1.6282969 c -0.667969,0 -0.773438,0 -0.773438,-0.4570313 v -1.75781248 c 0.04687,0.15234375 0.46875,0.69140625 1.21875,0.69140625 1.183594,0 2.226563,-0.97265625 2.226563,-2.26171877 0,-1.265625 -0.972657,-2.25 -2.085938,-2.25 -0.773437,0 -1.195312,0.4453125 -1.394531,0.65625 z m 0.03516,2.6132813 v -2.2148438 c 0.28125,-0.515625 0.773438,-0.796875 1.277344,-0.796875 0.726562,0 1.335937,0.8671875 1.335937,1.9921875 0,1.20703127 -0.691406,2.05078127 -1.429687,2.05078127 -0.398438,0 -0.773438,-0.19921875 -1.042969,-0.609375 -0.140625,-0.2109375 -0.140625,-0.22265625 -0.140625,-0.42187497 z m 5.545899,-5.7773438 -1.429688,0.1054688 v 0.3164062 c 0.703125,0 0.773438,0.070312 0.773438,0.5507813 v 5.17968747 c 0,0.45703125 -0.105469,0.45703125 -0.773438,0.45703125 v 0.304687505 c 0.328125,-0.011718755 0.855469,-0.035156255 1.101563,-0.035156255 0.257812,0 0.738281,0.0234375 1.113281,0.035156255 V -0.30529688 c -0.667969,0 -0.785156,0 -0.785156,-0.45703125 z m 2.768554,2.5078125 -1.394531,0.1171875 v 0.3046875 c 0.65625,0 0.738281,0.058594 0.738281,0.5507813 v 2.67187497 c 0,0.45703125 -0.105468,0.45703125 -0.773437,0.45703125 v 0.304687505 c 0.316406,-0.011718755 0.855469,-0.035156255 1.101562,-0.035156255 0.339844,0 0.691407,0.0234375 1.03125,0.035156255 V -0.30529688 c -0.65625,0 -0.703125,-0.0585938 -0.703125,-0.4453125 z m 0.04687,-1.734375 c 0,-0.3164062 -0.246093,-0.5273437 -0.527343,-0.5273437 -0.316407,0 -0.527344,0.2695312 -0.527344,0.5273437 0,0.2695313 0.210937,0.5273438 0.527344,0.5273438 0.28125,0 0.527343,-0.1992188 0.527343,-0.5273438 z m 2.124024,3.9726563 c 0,-1.6289063 0.820312,-2.0507813 1.347656,-2.0507813 0.09375,0 0.714844,0.011719 1.066406,0.375 -0.410156,0.023437 -0.46875,0.328125 -0.46875,0.4570313 0,0.2578125 0.1875,0.4570312 0.457032,0.4570312 0.257812,0 0.457031,-0.1640625 0.457031,-0.46875 0,-0.6796875 -0.75,-1.0664062 -1.523438,-1.0664062 -1.242187,0 -2.15625,1.078125 -2.15625,2.3085937 0,1.27734377 0.984375,2.26171877 2.144532,2.26171877 1.335937,0 1.652343,-1.19531247 1.652343,-1.28906247 0,-0.1054688 -0.105468,-0.1054688 -0.128906,-0.1054688 -0.09375,0 -0.117187,0.046875 -0.128906,0.1054688 -0.292969,0.92578122 -0.9375,1.04296872 -1.3125,1.04296872 -0.527344,0 -1.40625,-0.421875 -1.40625,-2.02734372 z m 6.583008,1.40624997 c 0.03516,0.3984375 0.304687,0.8203125 0.773437,0.8203125 0.210938,0 0.820313,-0.140625 0.820313,-0.94921875 V -1.4420156 h -0.246094 v 0.55078122 c 0,0.5859375 -0.246094,0.64453125 -0.363281,0.64453125 -0.328125,0 -0.363282,-0.45703125 -0.363282,-0.50390625 V -2.7427969 c 0,-0.4101562 0,-0.8085937 -0.363281,-1.171875 -0.386719,-0.3867187 -0.878906,-0.5507812 -1.359375,-0.5507812 -0.820312,0 -1.511719,0.46875 -1.511719,1.125 0,0.3046875 0.199219,0.46875 0.457032,0.46875 0.28125,0 0.46875,-0.1992188 0.46875,-0.4570313 0,-0.1171875 -0.05859,-0.4453125 -0.515625,-0.4570312 0.269531,-0.3515625 0.761718,-0.4570313 1.078125,-0.4570313 0.492187,0 1.054687,0.3867188 1.054687,1.2773438 v 0.3632812 c -0.503906,0.035156 -1.207031,0.058594 -1.828125,0.3632813 -0.75,0.3398437 -0.996094,0.8554687 -0.996094,1.28906247 0,0.80859375 0.960938,1.0546875 1.59375,1.0546875 0.65625,0 1.113282,-0.3984375 1.300782,-0.8671875 z m -0.07031,-1.62890627 v 0.9960938 c 0,0.94921872 -0.714844,1.28906247 -1.160156,1.28906247 -0.492188,0 -0.902344,-0.3515625 -0.902344,-0.85546875 0,-0.53906252 0.421875,-1.37109372 2.0625,-1.42968752 z m 3.457031,-1.59375 h 1.429688 v -0.3046875 h -1.42969 v -1.8398437 h -0.246093 c -0.01172,0.8203125 -0.316407,1.8867187 -1.289063,1.921875 v 0.2226562 h 0.84375 v 2.7539063 c 0,1.21874997 0.925781,1.33593747 1.289063,1.33593747 0.703125,0 0.984375,-0.703125 0.984375,-1.33593747 v -0.5742188 h -0.246094 v 0.5507813 c 0,0.73828122 -0.304688,1.11328122 -0.667969,1.11328122 -0.667969,0 -0.667969,-0.90234372 -0.667969,-1.07812502 z m 3.908203,-0.421875 -1.394531,0.1171875 v 0.3046875 c 0.65625,0 0.738281,0.058594 0.738281,0.5507813 v 2.67187497 c 0,0.45703125 -0.105468,0.45703125 -0.773437,0.45703125 v 0.304687505 c 0.316406,-0.011718755 0.855469,-0.035156255 1.101562,-0.035156255 0.339844,0 0.691407,0.0234375 1.03125,0.035156255 V -0.30529688 c -0.65625,0 -0.703125,-0.0585938 -0.703125,-0.4453125 z m 0.04687,-1.734375 c 0,-0.3164062 -0.246093,-0.5273437 -0.527343,-0.5273437 -0.316407,0 -0.527344,0.2695312 -0.527344,0.5273437 0,0.2695313 0.210937,0.5273438 0.527344,0.5273438 0.28125,0 0.527343,-0.1992188 0.527343,-0.5273438 z m 5.651368,4.0078125 c 0,-1.2773437 -0.996094,-2.3320312 -2.191407,-2.3320312 -1.253906,0 -2.214843,1.0898437 -2.214843,2.3320312 0,1.28906252 1.03125,2.23828127 2.203125,2.23828127 1.207031,0 2.203125,-0.97265625 2.203125,-2.23828127 z m -2.191407,1.99218752 c -0.433593,0 -0.867187,-0.2109375 -1.136718,-0.66796875 -0.257813,-0.43359377 -0.257813,-1.04296877 -0.257813,-1.40624997 0,-0.3867188 0,-0.9257813 0.246094,-1.359375 0.269531,-0.4570313 0.738281,-0.6679688 1.136719,-0.6679688 0.433593,0 0.867187,0.2226563 1.125,0.6445313 0.257812,0.4335937 0.257812,1.0078125 0.257812,1.3828125 0,0.3632812 0,0.9023437 -0.222656,1.33593747 -0.222656,0.4453125 -0.65625,0.73828125 -1.148438,0.73828125 z m 3.585938,-3.28125002 v 2.66015627 c 0,0.45703125 -0.117188,0.45703125 -0.785156,0.45703125 v 0.304687505 c 0.351562,-0.011718755 0.855468,-0.035156255 1.125,-0.035156255 0.257812,0 0.785156,0.0234375 1.113281,0.035156255 V -0.30529688 c -0.65625,0 -0.773438,0 -0.773438,-0.45703125 V -2.5904531 c 0,-1.03125 0.714844,-1.59375 1.347657,-1.59375 0.621093,0 0.738281,0.5390625 0.738281,1.1015625 v 2.32031247 c 0,0.45703125 -0.117188,0.45703125 -0.773438,0.45703125 v 0.304687505 c 0.339844,-0.011718755 0.855469,-0.035156255 1.125,-0.035156255 0.257813,0 0.773438,0.0234375 1.113282,0.035156255 V -0.30529688 c -0.515625,0 -0.773438,0 -0.785157,-0.3046875 V -2.5084219 c 0,-0.8554687 0,-1.171875 -0.304687,-1.5234375 -0.140625,-0.1757812 -0.46875,-0.375 -1.042969,-0.375 -0.726562,0 -1.195312,0.4335938 -1.476562,1.0546875 v -1.0546875 l -1.40625,0.1171875 v 0.3046875 c 0.703125,0 0.785156,0.070312 0.785156,0.5625 z m 6.509766,1.4882813 c 0.222656,0.035156 1.03125,0.1992187 1.03125,0.9140625 0,0.51562497 -0.351563,0.91406247 -1.125,0.91406247 -0.832032,0 -1.195313,-0.57421875 -1.382813,-1.41796877 -0.03516,-0.1289062 -0.03516,-0.1757812 -0.140625,-0.1757812 -0.128906,0 -0.128906,0.070312 -0.128906,0.2578125 v 1.31249997 c 0,0.1640625 0,0.234375 0.105469,0.234375 0.05859,0 0.07031,0 0.257812,-0.19921875 0.01172,-0.01171875 0.01172,-0.03515625 0.199219,-0.22265625 0.433594,0.421875 0.878906,0.421875 1.089844,0.421875 1.148437,0 1.605468,-0.66796875 1.605468,-1.38281247 0,-0.5273438 -0.292968,-0.8203125 -0.421875,-0.9492188 -0.328125,-0.3164062 -0.714843,-0.3984375 -1.136718,-0.46875 -0.550782,-0.1171875 -1.21875,-0.2460937 -1.21875,-0.8203125 0,-0.3515625 0.257812,-0.7617187 1.113281,-0.7617187 1.101562,0 1.148437,0.9023437 1.171875,1.2070312 0,0.09375 0.09375,0.09375 0.117187,0.09375 0.128907,0 0.128907,-0.046875 0.128907,-0.2460937 v -0.9960938 c 0,-0.1757812 0,-0.2460937 -0.117188,-0.2460937 -0.04687,0 -0.07031,0 -0.199219,0.1171875 -0.02344,0.046875 -0.128906,0.1289062 -0.164062,0.1640625 -0.375,-0.28125 -0.785156,-0.28125 -0.9375,-0.28125 -1.21875,0 -1.59375,0.6679687 -1.59375,1.2304687 0,0.3398438 0.164062,0.6210938 0.433594,0.84375 0.316406,0.2578125 0.597656,0.3164063 1.3125,0.4570313 z m 5.14746,4.3242187 c 0,-0.035156 0,-0.046875 -0.164062,-0.2226562 -1.242188,-1.25390628 -1.570313,-3.12890628 -1.570313,-4.6640625 0,-1.7226563 0.386719,-3.4570313 1.605469,-4.7109375 0.128906,-0.1171875 0.128906,-0.1289063 0.128906,-0.1640625 0,-0.070312 -0.03516,-0.1054688 -0.09375,-0.1054688 -0.105468,0 -0.996093,0.6796875 -1.582031,1.9453125 -0.515625,1.1015625 -0.632812,2.203125 -0.632812,3.0351563 0,0.7851562 0.117187,1.99218747 0.65625,3.11718747 0.597656,1.21875003 1.453125,1.87500003 1.558593,1.87500003 0.05859,0 0.09375,-0.035156 0.09375,-0.1054688 z m 0,0"
         style="fill:#000000;fill-opacity:1;fill-rule:nonzero;stroke:none" />
      <path
         id="path7"
         d="m 61.877438,-4.9810781 c 0,-0.65625 -0.1875,-2.0390625 -1.195313,-2.0390625 -1.382812,0 -2.917969,2.8007812 -2.917969,5.0859375 0,0.93749997 0.28125,2.03906247 1.195313,2.03906247 1.40625,0 2.917969,-2.85937497 2.917969,-5.08593747 z m -3.058594,1.359375 c 0.164062,-0.6328125 0.363281,-1.4296875 0.761719,-2.1328125 0.269531,-0.4921875 0.644531,-1.0546875 1.089843,-1.0546875 0.492188,0 0.550782,0.6445312 0.550782,1.2070312 0,0.4921875 -0.08203,0.9960938 -0.328125,1.9804688 z m 1.992187,0.328125 c -0.117187,0.4570312 -0.316406,1.3007812 -0.703125,2.015625 -0.339843,0.67968747 -0.726562,1.17187497 -1.148437,1.17187497 -0.328125,0 -0.539063,-0.29296875 -0.539063,-1.21874997 0,-0.421875 0.05859,-0.9960938 0.316407,-1.96875 z m 0,0"
         style="fill:#000000;fill-opacity:1;fill-rule:nonzero;stroke:none" />
      <path
         id="path8"
         d="m 65.179195,-2.4967031 c 0,-0.7734375 -0.117187,-1.9804688 -0.65625,-3.1054688 -0.597656,-1.21875 -1.464843,-1.875 -1.558593,-1.875 -0.05859,0 -0.105469,0.046875 -0.105469,0.1054688 0,0.035156 0,0.046875 0.199219,0.234375 0.972656,0.984375 1.535156,2.5664062 1.535156,4.640625 0,1.71093747 -0.363281,3.45703122 -1.59375,4.7226562 -0.140625,0.1171875 -0.140625,0.1289063 -0.140625,0.1640625 0,0.058594 0.04687,0.1054688 0.105469,0.1054688 0.09375,0 0.996093,-0.6796875 1.582031,-1.94531253 0.503906,-1.1015625 0.632812,-2.20312497 0.632812,-3.04687497 z M 1.7456016,7.6663828 V 6.5062266 c 0,-0.8789063 0.4804687,-1.359375 0.9140625,-1.359375 0.035156,0 0.1757812,0 0.328125,0.070312 -0.1171875,0.046875 -0.2929688,0.1757812 -0.2929688,0.421875 0,0.234375 0.1523438,0.4335937 0.421875,0.4335937 0.2929688,0 0.4335938,-0.1992187 0.4335938,-0.4453125 0,-0.3632812 -0.3632813,-0.6914062 -0.890625,-0.6914062 -0.703125,0 -1.546875,0.5273437 -1.546875,1.5820312 v 1.148438 H 0.32763281 V 7.9710703 H 1.1127891 v 3.2226567 c 0,0.457031 -0.1054688,0.457031 -0.77343754,0.457031 v 0.304687 c 0.38671875,-0.01172 0.85546874,-0.03516 1.13671874,-0.03516 0.3984375,0 0.8671875,0 1.265625,0.03516 V 11.650758 H 2.5307578 c -0.7382812,0 -0.7617187,-0.117188 -0.7617187,-0.46875 V 7.9710703 H 2.9057578 V 7.6663828 Z m 5.9853515,2.15625 c 0,-1.2773437 -0.9960937,-2.3320312 -2.1914062,-2.3320312 -1.2539063,0 -2.2148438,1.0898437 -2.2148438,2.3320312 0,1.2890622 1.03125,2.2382812 2.203125,2.2382812 1.2070313,0 2.203125,-0.972656 2.203125,-2.2382812 z M 5.5395469,11.81482 c -0.4335938,0 -0.8671875,-0.210937 -1.1367188,-0.667968 -0.2578125,-0.433594 -0.2578125,-1.042969 -0.2578125,-1.4062504 0,-0.3867188 0,-0.9257813 0.2460938,-1.359375 0.2695312,-0.4570313 0.7382812,-0.6679688 1.1367187,-0.6679688 0.4335938,0 0.8671875,0.2226563 1.125,0.6445313 0.2578125,0.4335937 0.2578125,1.0078125 0.2578125,1.3828125 0,0.3632814 0,0.9023434 -0.2226562,1.3359374 -0.2226563,0.445313 -0.65625,0.738281 -1.1484375,0.738281 z M 9.6909141,8.6507578 V 7.5491953 L 8.3081016,7.6663828 v 0.3046875 c 0.6914062,0 0.7734375,0.070312 0.7734375,0.5625 v 2.6601567 c 0,0.457031 -0.1054688,0.457031 -0.7734375,0.457031 v 0.304687 c 0.3867187,-0.01172 0.8554687,-0.03516 1.1367187,-0.03516 0.3984375,0 0.8671877,0 1.2656247,0.03516 v -0.304687 h -0.210937 c -0.7382814,0 -0.7617189,-0.117188 -0.7617189,-0.46875 V 9.6468516 c 0,-0.984375 0.4218749,-1.875 1.1835939,-1.875 0.05859,0 0.08203,0 0.105469,0.011719 -0.03516,0.011719 -0.234375,0.1289063 -0.234375,0.3867188 0,0.28125 0.210937,0.4335937 0.433593,0.4335937 0.175782,0 0.421875,-0.1289062 0.421875,-0.4453125 0,-0.3164062 -0.304687,-0.609375 -0.726562,-0.609375 -0.738281,0 -1.0898439,0.6679688 -1.2304689,1.1015622 z m 0,0"
         style="fill:#000000;fill-opacity:1;fill-rule:nonzero;stroke:none" />
      <path
         id="path9"
         d="m 18.271969,8.7210703 h 0.960937 c 0.75,0 0.832032,0.1523438 0.832032,0.4453125 0,0.070312 0,0.1875 -0.07031,0.4921875 -0.02344,0.046875 -0.03516,0.082031 -0.03516,0.1054688 0,0.082031 0.05859,0.1171875 0.117187,0.1171875 0.105469,0 0.105469,-0.023437 0.152344,-0.2109375 l 0.550781,-2.15625 c 0.02344,-0.1054688 0.02344,-0.1289063 0.02344,-0.1640625 0,-0.011719 -0.01172,-0.1054688 -0.117188,-0.1054688 -0.09375,0 -0.105468,0.046875 -0.152343,0.2109375 -0.199219,0.7734375 -0.433594,0.9492188 -1.277344,0.9492188 h -0.914063 l 0.644532,-2.53125 c 0.08203,-0.3398438 0.09375,-0.3867188 0.539062,-0.3867188 h 1.3125 c 1.21875,0 1.453125,0.328125 1.453125,1.1015625 0,0.2226563 0,0.2695313 -0.03516,0.5390625 -0.01172,0.1289063 -0.01172,0.140625 -0.01172,0.1757813 0,0.046875 0.02344,0.1171875 0.117188,0.1171875 0.105468,0 0.117187,-0.058594 0.140625,-0.2460938 l 0.199218,-1.7226562 c 0.02344,-0.2695313 -0.02344,-0.2695313 -0.269531,-0.2695313 h -4.886719 c -0.199218,0 -0.292968,0 -0.292968,0.1992188 0,0.1054687 0.09375,0.1054687 0.28125,0.1054687 0.363281,0 0.644531,0 0.644531,0.1875 0,0.035156 0,0.058594 -0.04687,0.234375 l -1.324219,5.2734377 c -0.09375,0.386719 -0.117187,0.46875 -0.902344,0.46875 -0.164062,0 -0.28125,0 -0.28125,0.1875 0,0.117187 0.128907,0.117187 0.152344,0.117187 0.292969,0 1.03125,-0.03516 1.3125,-0.03516 0.328125,0 1.160156,0.03516 1.488281,0.03516 0.09375,0 0.210938,0 0.210938,-0.1875 0,-0.08203 -0.05859,-0.105468 -0.05859,-0.117187 -0.03516,0 -0.05859,0 -0.28125,0 -0.222656,0 -0.269531,0 -0.515625,-0.02344 -0.292969,-0.03516 -0.328125,-0.07031 -0.328125,-0.199218 0,-0.02344 0,-0.08203 0.04687,-0.234375 z m 0,0"
         style="fill:#000000;fill-opacity:1;fill-rule:nonzero;stroke:none" />
      <path
         id="path10"
         d="m 25.534664,10.78943 0.65625,-0.667969 c 0.902344,-0.8789063 1.171875,-1.1484376 1.792969,-1.1835938 0.09375,-0.011719 0.175781,-0.011719 0.175781,-0.140625 0,-0.09375 -0.07031,-0.1054688 -0.09375,-0.1054688 -0.199219,0 -0.445312,0.023437 -0.65625,0.023437 -0.1875,0 -0.632812,-0.023437 -0.808594,-0.023437 -0.05859,0 -0.140625,0.011719 -0.140625,0.1523438 0,0 0,0.082031 0.105469,0.09375 0.05859,0.011719 0.234375,0.023437 0.234375,0.1757812 0,0.1054688 -0.105469,0.2109375 -0.175781,0.28125 -0.05859,0.046875 -0.9375,0.9140626 -1.195313,1.1835936 L 24.72607,9.2073984 c -0.01172,-0.023437 -0.03516,-0.070312 -0.03516,-0.09375 0,-0.046875 0.128906,-0.1640625 0.363281,-0.1757812 0.05859,0 0.152344,-0.011719 0.152344,-0.1523438 0,-0.011719 -0.01172,-0.09375 -0.117187,-0.09375 -0.152344,0 -0.328125,0.011719 -0.46875,0.011719 -0.152344,0 -0.304688,0.011719 -0.457032,0.011719 -0.117187,0 -0.28125,0 -0.410156,-0.011719 -0.117187,0 -0.269531,-0.011719 -0.375,-0.011719 -0.03516,0 -0.152344,0 -0.152344,0.1523438 0,0.09375 0.09375,0.09375 0.210938,0.09375 0.398437,0 0.433594,0.070312 0.503906,0.2109375 l 0.972656,1.9218753 -0.386718,0.386718 c -0.128907,0.128907 -0.457032,0.445313 -0.585938,0.574219 -0.84375,0.84375 -1.136719,1.136719 -1.757812,1.171875 -0.105469,0 -0.175782,0 -0.175782,0.152344 0,0.02344 0.02344,0.09375 0.09375,0.09375 0.199219,0 0.445313,-0.02344 0.644532,-0.02344 0.128906,0 0.292968,0 0.421875,0 0.117187,0.01172 0.269531,0.02344 0.386718,0.02344 0.03516,0 0.152344,0 0.152344,-0.140625 0,-0.105469 -0.08203,-0.105469 -0.128906,-0.105469 -0.07031,-0.01172 -0.210938,-0.03516 -0.210938,-0.175781 0,-0.117188 0.09375,-0.210938 0.246094,-0.363281 l 1.40625,-1.382813 0.84375,1.652344 c 0.03516,0.07031 0.04687,0.08203 0.04687,0.09375 0,0.03516 -0.128906,0.152344 -0.375,0.175781 -0.05859,0 -0.152344,0 -0.152344,0.152344 0,0 0.01172,0.09375 0.117188,0.09375 0.152344,0 0.328125,-0.02344 0.46875,-0.02344 0.152344,0 0.304687,0 0.457031,0 0.117188,0 0.28125,0 0.410156,0 0.117188,0.01172 0.269532,0.02344 0.375,0.02344 0.03516,0 0.152344,0 0.152344,-0.152344 0,-0.09375 -0.09375,-0.09375 -0.210937,-0.09375 -0.398438,0 -0.433594,-0.08203 -0.492188,-0.199219 z m 4.242188,2.542968 c 0,0.386719 -0.07031,0.832032 -0.550782,1.277344 -0.02344,0.03516 -0.04687,0.05859 -0.04687,0.09375 0,0.04687 0.05859,0.09375 0.09375,0.09375 0.105469,0 0.691407,-0.5625 0.691407,-1.394531 0,-0.421875 -0.164063,-0.75 -0.480469,-0.75 -0.234375,0 -0.398438,0.175781 -0.398438,0.386719 0,0.234375 0.152344,0.410156 0.398438,0.410156 0.164062,0 0.28125,-0.117188 0.292969,-0.117188 z m 5.613281,-3.8085933 c 0.140625,-0.140625 0.28125,-0.2695313 0.433594,-0.375 0.28125,-0.1875 0.539062,-0.1992188 0.632812,-0.2109375 0.07031,-0.011719 0.164063,-0.011719 0.164063,-0.1523438 0,-0.046875 -0.04687,-0.09375 -0.105469,-0.09375 -0.175781,0 -0.386719,0.023437 -0.5625,0.023437 -0.222656,0 -0.515625,-0.023437 -0.726563,-0.023437 -0.03516,0 -0.140625,0 -0.140625,0.1523438 0,0.082031 0.09375,0.09375 0.128907,0.09375 0.199218,0.011719 0.199218,0.09375 0.199218,0.1289062 0,0.070312 -0.03516,0.1171875 -0.09375,0.1875 -0.03516,0.058594 -0.07031,0.1054688 -0.117187,0.1523438 L 33.468258,11.223023 32.542477,9.1839609 c -0.04687,-0.09375 -0.04687,-0.1171875 -0.04687,-0.1171875 0,-0.1289062 0.328125,-0.1289062 0.375,-0.1289062 0.09375,0 0.175781,0 0.175781,-0.1523438 0,-0.011719 0,-0.09375 -0.105469,-0.09375 -0.210937,0 -0.726562,0.023437 -0.9375,0.023437 -0.175781,0 -0.621094,-0.023437 -0.796875,-0.023437 -0.04687,0 -0.128906,0.011719 -0.128906,0.1523438 0,0.09375 0.08203,0.09375 0.1875,0.09375 0.398437,0 0.421875,0.058594 0.492187,0.2109375 l 1.089844,2.3906253 -0.316406,1.277343 c -0.09375,0.351563 -0.09375,0.375 -0.644531,0.386719 -0.117188,0 -0.210938,0 -0.210938,0.140625 0,0.07031 0.04687,0.105469 0.117188,0.105469 0.128906,0 0.292968,-0.02344 0.433593,-0.02344 0.128907,0 0.328125,0 0.457032,0 0.140625,0 0.304687,0 0.445312,0 0.152344,0 0.316406,0.02344 0.46875,0.02344 0.03516,0 0.152344,0 0.152344,-0.152344 0,-0.09375 -0.08203,-0.09375 -0.234375,-0.09375 -0.117188,0 -0.140625,0 -0.269531,-0.02344 -0.128907,-0.01172 -0.152344,-0.02344 -0.152344,-0.09375 0,-0.04687 0.08203,-0.375 0.128906,-0.5625 0.05859,-0.222657 0.210938,-0.832032 0.222656,-0.855469 0.02344,-0.105469 0.02344,-0.117188 0.09375,-0.1875 z m 0,0"
         style="fill:#000000;fill-opacity:1;fill-rule:nonzero;stroke:none" />
    </g>
    <path
       id="path11"
       d="M 30.97739,0 H 44.00755"
       style="fill:none;stroke:#000000;stroke-width:0.3985;stroke-linecap:butt;stroke-linejoin:miter;stroke-miterlimit:10;stroke-dasharray:none;stroke-opacity:1"
       transform="matrix(1.3333333,0,0,-1.3333333,42.298667,25.756)" />
    <path
       id="path12"
       d="M -2.18182,2.9091 C -2,1.81818 0,0.18181 0.54544,0 0,-0.18181 -2,-1.81818 -2.18182,-2.9091"
       style="fill:none;stroke:#000000;stroke-width:1.19553;stroke-linecap:round;stroke-linejoin:round;stroke-miterlimit:10;stroke-dasharray:none;stroke-opacity:1"
       transform="matrix(1.3333333,0,0,-1.3333333,100.9754,25.756)" />
  </g>
</svg>
